<svg id="Layer_1" enable-background="new 0 0 256 256" height="512" viewBox="0 0 256 256" width="512" xmlns="http://www.w3.org/2000/svg"><path d="m117.458 77c-24.537 0-46.319 11.785-60.002 30.002 2.874 1.53 6.114 2.943 9.654 4.226 10.695-20.594 29.243-34.228 50.348-34.228z" fill="#ede49d"/><path d="m167.807 111.228c3.54-1.283 6.78-2.696 9.654-4.226-13.683-18.217-35.466-30.002-60.003-30.002 21.106 0 39.653 13.634 50.349 34.228z" fill="#419b46"/><path d="m177.458 152h15c0-16.884-5.582-32.463-14.998-44.999-2.874 1.53-6.114 2.943-9.654 4.226 6.098 11.74 9.652 25.734 9.652 40.773z" fill="#4b67b0"/><path d="m115.199 226.943c.75.035 1.503.057 2.26.057-.758 0-1.508-.035-2.26-.057z" fill="#89aadb"/><path d="m57.458 152h-15c0 16.867 5.57 32.433 14.969 44.961 2.781-1.452 6.463-3.252 9.582-4.387-6.035-11.699-9.551-25.619-9.551-40.574z" fill="#ef7f72"/><path d="m115.199 226.943c-20.232-.938-37.893-14.404-48.19-34.368-3.119 1.134-6.801 2.935-9.582 4.387 13.259 17.674 34.146 29.28 57.772 29.981z" fill="#89aadb"/><path d="m119.718 226.943c-.752.022-1.502.057-2.26.057.757 0 1.51-.022 2.26-.057z" fill="#419b46"/><path d="m119.718 226.943c23.627-.701 44.514-12.308 57.773-29.983-2.772-1.455-6.371-3.217-9.583-4.385-10.297 19.964-27.958 33.43-48.19 34.368z" fill="#4b67b0"/><path d="m177.458 152c0 14.955-3.516 28.875-9.55 40.574 3.212 1.168 6.81 2.931 9.583 4.385 9.398-12.528 14.967-28.093 14.967-44.959z" fill="#419b46"/><path d="m67.11 111.228c-3.54-1.283-6.78-2.696-9.654-4.226-9.415 12.535-14.998 28.114-14.998 44.998h15c0-15.039 3.555-29.032 9.652-40.772z" fill="#89aadb"/><path d="m67.11 111.228c3.622 1.312 7.56 2.489 11.774 3.5 7.668-22.537 22.065-37.728 38.574-37.728-21.105 0-39.653 13.634-50.348 34.228z" fill="#eee045"/><path d="m156.033 114.729c4.214-1.012 8.151-2.188 11.773-3.501-10.695-20.594-29.242-34.228-50.348-34.228 16.51 0 30.907 15.191 38.575 37.729z" fill="#65bc49"/><path d="m156.033 114.729c3.737 10.982 5.885 23.7 5.885 37.271h15.54c0-15.039-3.555-29.033-9.652-40.772-3.621 1.312-7.559 2.488-11.773 3.501z" fill="#6287c5"/><path d="m57.458 152c0 14.955 3.516 28.875 9.55 40.575 3.629-1.32 7.576-2.501 11.801-3.519-3.692-10.933-5.811-23.573-5.811-37.056z" fill="#e95947"/><path d="m78.81 189.056c-4.225 1.018-8.172 2.199-11.801 3.519 10.679 20.704 29.277 34.425 50.449 34.425-16.562 0-30.998-15.289-38.648-37.944z" fill="#6287c5"/><path d="m167.908 192.574c-3.629-1.319-7.576-2.501-11.801-3.519-7.65 22.656-22.086 37.945-38.649 37.945 21.174 0 39.771-13.721 50.45-34.426z" fill="#6287c5"/><path d="m156.107 189.055c4.225 1.018 8.172 2.2 11.801 3.519 6.034-11.699 9.55-25.619 9.55-40.574h-15.54c0 13.482-2.119 26.122-5.811 37.055z" fill="#65bc49"/><path d="m78.883 114.729c-4.214-1.012-8.151-2.188-11.774-3.5-6.097 11.74-9.651 25.733-9.651 40.772h15.54c.001-13.572 2.148-26.29 5.885-37.272z" fill="#6287c5"/><path d="m78.883 114.729c3.804.914 7.827 1.697 12.03 2.333 5.026-23.818 15.025-40.062 26.545-40.062-16.509 0-30.906 15.191-38.575 37.729z" fill="#d3ba2a"/><path d="m144.004 117.062c4.203-.637 8.226-1.419 12.03-2.333-7.669-22.538-22.066-37.729-38.576-37.729 11.521 0 21.519 16.244 26.546 40.062z" fill="#a4d4a0"/><path d="m161.918 152c0-13.571-2.148-26.289-5.885-37.271-3.804.914-7.827 1.697-12.03 2.333 2.202 10.436 3.455 22.319 3.455 34.938z" fill="#89aadb"/><path d="m90.867 186.711c-4.213.639-8.245 1.426-12.057 2.344 7.65 22.656 22.086 37.945 38.648 37.945-11.557 0-21.581-16.348-26.591-40.289z" fill="#4b67b0"/><path d="m72.999 152c0 13.482 2.12 26.123 5.811 37.056 3.812-.918 7.843-1.705 12.057-2.344-2.173-10.381-3.408-22.183-3.408-34.711h-14.46z" fill="#e8383b"/><path d="m156.107 189.055c-3.812-.918-7.843-1.705-12.057-2.344-5.01 23.941-15.034 40.289-26.592 40.289 16.563 0 30.999-15.289 38.649-37.945z" fill="#89aadb"/><path d="m147.458 152c0 12.528-1.235 24.33-3.408 34.711 4.213.64 8.245 1.426 12.057 2.344 3.692-10.933 5.811-23.573 5.811-37.055z" fill="#a4d4a0"/><path d="m87.458 152c0-12.619 1.252-24.502 3.455-34.938-4.203-.637-8.226-1.419-12.03-2.333-3.737 10.982-5.885 23.7-5.885 37.271z" fill="#4b67b0"/><path d="m129.458 152c0 11.875-.443 23.099-1.229 33.078 5.487.317 10.784.869 15.821 1.633 2.173-10.381 3.408-22.183 3.408-34.711z" fill="#4b67b0"/><path d="m87.458 152c0 12.529 1.235 24.33 3.408 34.711 5.037-.764 10.334-1.316 15.821-1.634-.786-9.979-1.229-21.203-1.229-33.078h-18z" fill="#89aadb"/><path d="m105.458 152c0-11.968.451-23.273 1.248-33.311-5.477-.316-10.765-.866-15.794-1.627-2.202 10.436-3.455 22.319-3.455 34.938z" fill="#ef7f72"/><path d="m147.458 152c0-12.619-1.252-24.502-3.455-34.938-5.029.762-10.317 1.312-15.794 1.627.798 10.038 1.249 21.342 1.249 33.311z" fill="#e8383b"/><path d="m90.913 117.062c5.029.762 10.317 1.312 15.794 1.627 1.963-24.703 6.039-41.689 10.751-41.689-11.52 0-21.519 16.244-26.545 40.062z" fill="#89aadb"/><path d="m128.21 118.689c5.477-.316 10.765-.866 15.794-1.627-5.027-23.818-15.025-40.062-26.546-40.062 4.713 0 8.789 16.986 10.752 41.689z" fill="#4b67b0"/><path d="m106.688 185.078c-5.487.317-10.784.87-15.821 1.634 5.01 23.94 15.034 40.288 26.591 40.288-4.727 0-8.814-17.092-10.77-41.922z" fill="#ede49d"/><path d="m144.05 186.711c-5.037-.764-10.334-1.316-15.821-1.633-1.956 24.83-6.043 41.922-10.771 41.922 11.558 0 21.582-16.348 26.592-40.289z" fill="#d3ba2a"/><path d="m105.458 152c0 11.875.443 23.099 1.229 33.078 3.518-.203 7.112-.312 10.771-.312s7.252.109 10.77.312c.786-9.979 1.229-21.203 1.229-33.078z" fill="#6287c5"/><path d="m129.458 152c0-11.968-.451-23.273-1.249-33.311-3.512.202-7.099.311-10.751.311s-7.24-.108-10.752-.311c-.798 10.038-1.248 21.342-1.248 33.311z" fill="#e95947"/><path d="m106.707 118.689c3.512.202 7.099.311 10.752.311s7.24-.108 10.751-.311c-1.963-24.703-6.039-41.689-10.752-41.689s-8.788 16.986-10.751 41.689z" fill="#6287c5"/><path d="m128.229 185.078c-3.517-.203-7.111-.312-10.77-.312s-7.253.109-10.771.312c1.956 24.831 6.043 41.922 10.771 41.922s8.814-17.092 10.77-41.922z" fill="#eee045"/><g fill="#1c2d6b"><path d="m117.458 230c-43.01 0-78-34.99-78-78s34.99-78 78-78 78 34.99 78 78-34.99 78-78 78zm0-150c-39.701 0-72 32.299-72 72s32.299 72 72 72 72-32.299 72-72-32.299-72-72-72z"/><path d="m117.458 230c-18.505 0-33-34.262-33-78s14.495-78 33-78 33 34.262 33 78-14.495 78-33 78zm0-150c-13.039 0-27 28.932-27 72s13.961 72 27 72 27-28.932 27-72-13.961-72-27-72z"/><path d="m117.458 122c-24.289 0-46.673-4.502-61.413-12.351-1.462-.779-2.017-2.596-1.238-4.059.779-1.462 2.596-2.015 4.059-1.238 13.695 7.294 35.599 11.648 58.592 11.648 22.995 0 44.9-4.354 58.595-11.647 1.464-.779 3.28-.226 4.058 1.237.779 1.462.226 3.279-1.237 4.058-14.74 7.85-37.125 12.352-61.416 12.352z"/><path d="m57.458 199.767c-1.073 0-2.111-.577-2.65-1.591-.779-1.462-.226-3.279 1.237-4.058 14.739-7.851 37.124-12.353 61.414-12.353 24.289 0 46.674 4.502 61.414 12.351 1.462.779 2.017 2.596 1.238 4.059-.779 1.461-2.595 2.014-4.059 1.238-13.695-7.293-35.6-11.647-58.594-11.647-22.995 0-44.899 4.354-58.594 11.647-.448.239-.93.354-1.406.354z"/></g><path d="m117.458 59.97c-6.627 0-12 5.373-12 12v5.998c2.612-.42 5.271-.697 7.965-.844v-5.154c0-6.628 1.807-12 4.035-12z" fill="#ef7f72"/><path d="m129.458 71.97c0-6.627-5.373-12-12-12 2.229 0 4.035 5.373 4.035 12v5.153c2.694.147 5.352.424 7.965.844z" fill="#e8383b"/><path d="m117.458 59.97c-2.229 0-4.035 5.373-4.035 12v5.153c1.337-.073 2.68-.123 4.035-.123s2.698.05 4.035.123v-5.153c.001-6.628-1.806-12-4.035-12z" fill="#e95947"/><path d="m105.458 80.967c-.708 0-1.399-.251-1.946-.717-.668-.57-1.054-1.404-1.054-2.283v-5.997c0-8.271 6.729-15 15-15s15 6.729 15 15v5.997c0 .879-.386 1.714-1.055 2.283-.668.569-1.555.816-2.421.679-7.671-1.232-15.374-1.232-23.049 0-.158.025-.317.038-.475.038zm12-17.997c-4.963 0-9 4.037-9 9v2.555c6.014-.697 11.986-.697 18 0v-2.555c0-4.963-4.037-9-9-9z" fill="#1c2d6b"/><path d="m117.458 62.97c-1.657 0-3-1.343-3-3v-30.97c0-1.657 1.343-3 3-3s3 1.343 3 3v30.97c0 1.657-1.343 3-3 3z" fill="#1c2d6b"/><path d="m192.458 155h-150c-1.657 0-3-1.343-3-3s1.343-3 3-3h150c1.657 0 3 1.343 3 3s-1.343 3-3 3z" fill="#1c2d6b"/><path d="m156.893 208.373c0-7.295 1.662-13.209 3.713-13.209-7.295 0-13.209 5.914-13.209 13.209 0 7.296 5.914 13.209 13.209 13.209-2.051 0-3.713-5.914-3.713-13.209z" fill="#ede49d"/><path d="m160.605 195.163c2.05 0 3.713 5.914 3.713 13.209 0 7.296-1.662 13.209-3.713 13.209 7.295 0 13.209-5.914 13.209-13.209.001-7.295-5.913-13.209-13.209-13.209z" fill="#d3ba2a"/><ellipse cx="160.605" cy="208.373" fill="#eee045" rx="3.713" ry="13.209"/><path d="m196.479 201.135c0-7.295 1.662-13.209 3.713-13.209-7.295 0-13.209 5.914-13.209 13.209 0 7.296 5.914 13.209 13.209 13.209-2.051.001-3.713-5.913-3.713-13.209z" fill="#ede49d"/><path d="m200.192 187.926c2.05 0 3.713 5.914 3.713 13.209 0 7.296-1.662 13.209-3.713 13.209 7.295 0 13.209-5.914 13.209-13.209s-5.914-13.209-13.209-13.209z" fill="#d3ba2a"/><ellipse cx="200.192" cy="201.135" fill="#eee045" rx="3.713" ry="13.209"/><path d="m160.605 224.582c-8.938 0-16.21-7.271-16.21-16.209s7.271-16.21 16.21-16.21c8.938 0 16.209 7.271 16.209 16.21 0 8.938-7.271 16.209-16.209 16.209zm0-26.419c-5.63 0-10.21 4.58-10.21 10.21 0 5.629 4.58 10.209 10.21 10.209 5.629 0 10.209-4.58 10.209-10.209 0-5.63-4.58-10.21-10.209-10.21z" fill="#1c2d6b"/><path d="m173.955 211.373c-1.657 0-3-1.343-3-3v-39.601c0-1.657 1.343-3 3-3s3 1.343 3 3v39.601c0 1.657-1.343 3-3 3z" fill="#1c2d6b"/><path d="m200.191 217.345c-8.938 0-16.209-7.271-16.209-16.209s7.271-16.21 16.209-16.21 16.21 7.271 16.21 16.21c0 8.937-7.271 16.209-16.21 16.209zm0-26.419c-5.629 0-10.209 4.58-10.209 10.21 0 5.629 4.58 10.209 10.209 10.209 5.63 0 10.21-4.58 10.21-10.209 0-5.63-4.58-10.21-10.21-10.21z" fill="#1c2d6b"/><path d="m213.542 204.136c-1.657 0-3-1.343-3-3v-45.573c0-1.657 1.343-3 3-3s3 1.343 3 3v45.573c0 1.657-1.343 3-3 3z" fill="#1c2d6b"/><path d="m173.955 168.772v13.196l13.041-4.364v-13.196z" fill="#ef7f72"/><path d="m213.387 155.577-13.195 4.416v13.195l13.195-4.416z" fill="#e8383b"/><path d="m186.996 164.408v13.196l13.196-4.416v-13.195z" fill="#e95947"/><path d="m173.955 184.968c-.621 0-1.235-.193-1.753-.565-.783-.563-1.247-1.47-1.247-2.435v-13.195c0-1.29.824-2.436 2.048-2.845l39.432-13.195c.914-.31 1.921-.153 2.705.41.783.563 1.247 1.47 1.247 2.435v13.195c0 1.29-.824 2.436-2.048 2.845l-39.432 13.195c-.31.104-.633.155-.952.155zm3-14.036v6.869l33.432-11.188v-6.869zm36.432-2.16h.01z" fill="#1c2d6b"/></svg>